<mxfile host="app.diagrams.net" modified="2021-08-14T08:03:33.806Z" agent="5.0 (Macintosh; Intel Mac OS X 10_15_7) AppleWebKit/537.36 (KHTML, like Gecko) Chrome/92.0.4515.131 Safari/537.36" etag="msgVuY01S_taI7ykIYQt" version="14.5.1" type="github">
  <diagram id="70akwOYrs_zPX4gierDc" name="第 1 页">
    <mxGraphModel dx="946" dy="529" grid="1" gridSize="10" guides="1" tooltips="1" connect="1" arrows="1" fold="1" page="1" pageScale="1" pageWidth="827" pageHeight="1169" math="0" shadow="0">
      <root>
        <mxCell id="0" />
        <mxCell id="1" parent="0" />
        <mxCell id="2Fs-SG_frbHr2sO-u1KF-1" value="SDS" style="shape=table;html=1;whiteSpace=wrap;startSize=30;container=1;collapsible=0;childLayout=tableLayout;fontStyle=1;align=center;" parent="1" vertex="1">
          <mxGeometry x="70" y="450" width="60" height="150" as="geometry" />
        </mxCell>
        <mxCell id="2Fs-SG_frbHr2sO-u1KF-2" value="" style="shape=partialRectangle;html=1;whiteSpace=wrap;collapsible=0;dropTarget=0;pointerEvents=0;fillColor=none;top=0;left=0;bottom=0;right=0;points=[[0,0.5],[1,0.5]];portConstraint=eastwest;" parent="2Fs-SG_frbHr2sO-u1KF-1" vertex="1">
          <mxGeometry y="30" width="60" height="40" as="geometry" />
        </mxCell>
        <mxCell id="2Fs-SG_frbHr2sO-u1KF-14" value="int len" style="shape=partialRectangle;html=1;whiteSpace=wrap;connectable=0;fillColor=none;top=0;left=0;bottom=0;right=0;overflow=hidden;" parent="2Fs-SG_frbHr2sO-u1KF-2" vertex="1">
          <mxGeometry width="60" height="40" as="geometry" />
        </mxCell>
        <mxCell id="2Fs-SG_frbHr2sO-u1KF-6" value="" style="shape=partialRectangle;html=1;whiteSpace=wrap;collapsible=0;dropTarget=0;pointerEvents=0;fillColor=none;top=0;left=0;bottom=0;right=0;points=[[0,0.5],[1,0.5]];portConstraint=eastwest;" parent="2Fs-SG_frbHr2sO-u1KF-1" vertex="1">
          <mxGeometry y="70" width="60" height="40" as="geometry" />
        </mxCell>
        <mxCell id="2Fs-SG_frbHr2sO-u1KF-15" value="char[] buff" style="shape=partialRectangle;html=1;whiteSpace=wrap;connectable=0;fillColor=none;top=0;left=0;bottom=0;right=0;overflow=hidden;" parent="2Fs-SG_frbHr2sO-u1KF-6" vertex="1">
          <mxGeometry width="60" height="40" as="geometry" />
        </mxCell>
        <mxCell id="2Fs-SG_frbHr2sO-u1KF-10" value="" style="shape=partialRectangle;html=1;whiteSpace=wrap;collapsible=0;dropTarget=0;pointerEvents=0;fillColor=none;top=0;left=0;bottom=0;right=0;points=[[0,0.5],[1,0.5]];portConstraint=eastwest;" parent="2Fs-SG_frbHr2sO-u1KF-1" vertex="1">
          <mxGeometry y="110" width="60" height="40" as="geometry" />
        </mxCell>
        <mxCell id="2Fs-SG_frbHr2sO-u1KF-16" value="int free" style="shape=partialRectangle;html=1;whiteSpace=wrap;connectable=0;fillColor=none;top=0;left=0;bottom=0;right=0;overflow=hidden;" parent="2Fs-SG_frbHr2sO-u1KF-10" vertex="1">
          <mxGeometry width="60" height="40" as="geometry" />
        </mxCell>
        <mxCell id="2Fs-SG_frbHr2sO-u1KF-20" style="edgeStyle=orthogonalEdgeStyle;rounded=0;orthogonalLoop=1;jettySize=auto;html=1;exitX=1;exitY=0.5;exitDx=0;exitDy=0;" parent="1" source="2Fs-SG_frbHr2sO-u1KF-6" edge="1">
          <mxGeometry relative="1" as="geometry">
            <mxPoint x="160" y="540" as="targetPoint" />
          </mxGeometry>
        </mxCell>
        <mxCell id="2Fs-SG_frbHr2sO-u1KF-22" value="" style="shape=table;html=1;whiteSpace=wrap;startSize=0;container=1;collapsible=0;childLayout=tableLayout;" parent="1" vertex="1">
          <mxGeometry x="160" y="530" width="160" height="20" as="geometry" />
        </mxCell>
        <mxCell id="2Fs-SG_frbHr2sO-u1KF-23" value="" style="shape=partialRectangle;html=1;whiteSpace=wrap;collapsible=0;dropTarget=0;pointerEvents=0;fillColor=none;top=0;left=0;bottom=0;right=0;points=[[0,0.5],[1,0.5]];portConstraint=eastwest;" parent="2Fs-SG_frbHr2sO-u1KF-22" vertex="1">
          <mxGeometry width="160" height="20" as="geometry" />
        </mxCell>
        <mxCell id="2Fs-SG_frbHr2sO-u1KF-24" value="R" style="shape=partialRectangle;html=1;whiteSpace=wrap;connectable=0;fillColor=none;top=0;left=0;bottom=0;right=0;overflow=hidden;" parent="2Fs-SG_frbHr2sO-u1KF-23" vertex="1">
          <mxGeometry width="20" height="20" as="geometry" />
        </mxCell>
        <mxCell id="2Fs-SG_frbHr2sO-u1KF-25" value="e" style="shape=partialRectangle;html=1;whiteSpace=wrap;connectable=0;fillColor=none;top=0;left=0;bottom=0;right=0;overflow=hidden;" parent="2Fs-SG_frbHr2sO-u1KF-23" vertex="1">
          <mxGeometry x="20" width="20" height="20" as="geometry" />
        </mxCell>
        <mxCell id="2Fs-SG_frbHr2sO-u1KF-26" value="d" style="shape=partialRectangle;html=1;whiteSpace=wrap;connectable=0;fillColor=none;top=0;left=0;bottom=0;right=0;overflow=hidden;" parent="2Fs-SG_frbHr2sO-u1KF-23" vertex="1">
          <mxGeometry x="40" width="20" height="20" as="geometry" />
        </mxCell>
        <mxCell id="2Fs-SG_frbHr2sO-u1KF-48" value="i" style="shape=partialRectangle;html=1;whiteSpace=wrap;connectable=0;fillColor=none;top=0;left=0;bottom=0;right=0;overflow=hidden;" parent="2Fs-SG_frbHr2sO-u1KF-23" vertex="1">
          <mxGeometry x="60" width="20" height="20" as="geometry" />
        </mxCell>
        <mxCell id="2Fs-SG_frbHr2sO-u1KF-49" value="s" style="shape=partialRectangle;html=1;whiteSpace=wrap;connectable=0;fillColor=none;top=0;left=0;bottom=0;right=0;overflow=hidden;" parent="2Fs-SG_frbHr2sO-u1KF-23" vertex="1">
          <mxGeometry x="80" width="20" height="20" as="geometry" />
        </mxCell>
        <mxCell id="2Fs-SG_frbHr2sO-u1KF-50" value="\n" style="shape=partialRectangle;html=1;whiteSpace=wrap;connectable=0;fillColor=none;top=0;left=0;bottom=0;right=0;overflow=hidden;" parent="2Fs-SG_frbHr2sO-u1KF-23" vertex="1">
          <mxGeometry x="100" width="20" height="20" as="geometry" />
        </mxCell>
        <mxCell id="2Fs-SG_frbHr2sO-u1KF-51" style="shape=partialRectangle;html=1;whiteSpace=wrap;connectable=0;fillColor=none;top=0;left=0;bottom=0;right=0;overflow=hidden;" parent="2Fs-SG_frbHr2sO-u1KF-23" vertex="1">
          <mxGeometry x="120" width="20" height="20" as="geometry" />
        </mxCell>
        <mxCell id="2Fs-SG_frbHr2sO-u1KF-52" style="shape=partialRectangle;html=1;whiteSpace=wrap;connectable=0;fillColor=none;top=0;left=0;bottom=0;right=0;overflow=hidden;" parent="2Fs-SG_frbHr2sO-u1KF-23" vertex="1">
          <mxGeometry x="140" width="20" height="20" as="geometry" />
        </mxCell>
        <mxCell id="2Fs-SG_frbHr2sO-u1KF-53" value="1. 空间预分配，小于1M，len属性有free属性相同，大于1M，多分配1M，急free=1M&lt;br&gt;2.惰性空间释放&lt;br&gt;&lt;b&gt;对比C语言字符串的有点：&lt;/b&gt;&lt;br&gt;1. 获取字符串长度时间复杂度O(1)；&lt;br&gt;2. 杜绝缓冲区溢出&lt;br&gt;3.减少修改字符串长度是所需要的内存重分配次数&lt;br&gt;4.二进制安全&lt;br&gt;5.兼容部分C字符串函数" style="whiteSpace=wrap;html=1;align=left;fillColor=#B9E0A5;" parent="1" vertex="1">
          <mxGeometry x="70" y="610" width="370" height="150" as="geometry" />
        </mxCell>
        <mxCell id="2Fs-SG_frbHr2sO-u1KF-55" value="" style="shape=table;html=1;whiteSpace=wrap;startSize=0;container=1;collapsible=0;childLayout=tableLayout;" parent="1" vertex="1">
          <mxGeometry x="639.5" y="497.5" width="45" height="50" as="geometry" />
        </mxCell>
        <mxCell id="2Fs-SG_frbHr2sO-u1KF-56" value="" style="shape=partialRectangle;html=1;whiteSpace=wrap;collapsible=0;dropTarget=0;pointerEvents=0;fillColor=none;top=0;left=0;bottom=0;right=0;points=[[0,0.5],[1,0.5]];portConstraint=eastwest;" parent="2Fs-SG_frbHr2sO-u1KF-55" vertex="1">
          <mxGeometry width="45" height="25" as="geometry" />
        </mxCell>
        <mxCell id="2Fs-SG_frbHr2sO-u1KF-57" value="listNode" style="shape=partialRectangle;html=1;whiteSpace=wrap;connectable=0;overflow=hidden;fillColor=none;top=0;left=0;bottom=0;right=0;container=0;" parent="2Fs-SG_frbHr2sO-u1KF-56" vertex="1">
          <mxGeometry width="45" height="25" as="geometry" />
        </mxCell>
        <mxCell id="2Fs-SG_frbHr2sO-u1KF-58" value="" style="shape=partialRectangle;html=1;whiteSpace=wrap;collapsible=0;dropTarget=0;pointerEvents=0;fillColor=none;top=0;left=0;bottom=0;right=0;points=[[0,0.5],[1,0.5]];portConstraint=eastwest;" parent="2Fs-SG_frbHr2sO-u1KF-55" vertex="1">
          <mxGeometry y="25" width="45" height="25" as="geometry" />
        </mxCell>
        <mxCell id="2Fs-SG_frbHr2sO-u1KF-59" value="value" style="shape=partialRectangle;html=1;whiteSpace=wrap;connectable=0;overflow=hidden;fillColor=none;top=0;left=0;bottom=0;right=0;container=0;" parent="2Fs-SG_frbHr2sO-u1KF-58" vertex="1">
          <mxGeometry width="45" height="25" as="geometry" />
        </mxCell>
        <mxCell id="2Fs-SG_frbHr2sO-u1KF-65" value="" style="shape=table;html=1;whiteSpace=wrap;startSize=0;container=1;collapsible=0;childLayout=tableLayout;" parent="1" vertex="1">
          <mxGeometry x="815" y="497.5" width="45" height="50" as="geometry" />
        </mxCell>
        <mxCell id="2Fs-SG_frbHr2sO-u1KF-66" value="" style="shape=partialRectangle;html=1;whiteSpace=wrap;collapsible=0;dropTarget=0;pointerEvents=0;fillColor=none;top=0;left=0;bottom=0;right=0;points=[[0,0.5],[1,0.5]];portConstraint=eastwest;" parent="2Fs-SG_frbHr2sO-u1KF-65" vertex="1">
          <mxGeometry width="45" height="25" as="geometry" />
        </mxCell>
        <mxCell id="2Fs-SG_frbHr2sO-u1KF-67" value="listNode" style="shape=partialRectangle;html=1;whiteSpace=wrap;connectable=0;overflow=hidden;fillColor=none;top=0;left=0;bottom=0;right=0;container=0;" parent="2Fs-SG_frbHr2sO-u1KF-66" vertex="1">
          <mxGeometry width="45" height="25" as="geometry" />
        </mxCell>
        <mxCell id="2Fs-SG_frbHr2sO-u1KF-68" value="" style="shape=partialRectangle;html=1;whiteSpace=wrap;collapsible=0;dropTarget=0;pointerEvents=0;fillColor=none;top=0;left=0;bottom=0;right=0;points=[[0,0.5],[1,0.5]];portConstraint=eastwest;" parent="2Fs-SG_frbHr2sO-u1KF-65" vertex="1">
          <mxGeometry y="25" width="45" height="25" as="geometry" />
        </mxCell>
        <mxCell id="2Fs-SG_frbHr2sO-u1KF-69" value="value" style="shape=partialRectangle;html=1;whiteSpace=wrap;connectable=0;overflow=hidden;fillColor=none;top=0;left=0;bottom=0;right=0;container=0;" parent="2Fs-SG_frbHr2sO-u1KF-68" vertex="1">
          <mxGeometry width="45" height="25" as="geometry" />
        </mxCell>
        <mxCell id="2Fs-SG_frbHr2sO-u1KF-75" value="next" style="edgeStyle=orthogonalEdgeStyle;rounded=0;orthogonalLoop=1;jettySize=auto;html=1;exitX=1;exitY=0.5;exitDx=0;exitDy=0;entryX=0;entryY=0.5;entryDx=0;entryDy=0;" parent="1" source="2Fs-SG_frbHr2sO-u1KF-56" target="2Fs-SG_frbHr2sO-u1KF-119" edge="1">
          <mxGeometry x="518" y="480" as="geometry">
            <mxPoint x="720.5" y="503.75" as="targetPoint" />
          </mxGeometry>
        </mxCell>
        <mxCell id="2Fs-SG_frbHr2sO-u1KF-95" value="" style="shape=table;html=1;whiteSpace=wrap;startSize=0;container=1;collapsible=0;childLayout=tableLayout;fontStyle=1" parent="1" vertex="1">
          <mxGeometry x="518" y="480" width="45" height="124.99999999999999" as="geometry" />
        </mxCell>
        <mxCell id="2Fs-SG_frbHr2sO-u1KF-96" value="" style="shape=partialRectangle;html=1;whiteSpace=wrap;collapsible=0;dropTarget=0;pointerEvents=0;fillColor=none;top=0;left=0;bottom=0;right=0;points=[[0,0.5],[1,0.5]];portConstraint=eastwest;" parent="2Fs-SG_frbHr2sO-u1KF-95" vertex="1">
          <mxGeometry width="45" height="25" as="geometry" />
        </mxCell>
        <mxCell id="2Fs-SG_frbHr2sO-u1KF-97" value="&lt;b&gt;list&lt;/b&gt;" style="shape=partialRectangle;html=1;whiteSpace=wrap;connectable=0;overflow=hidden;fillColor=none;top=0;left=0;bottom=0;right=0;container=0;" parent="2Fs-SG_frbHr2sO-u1KF-96" vertex="1">
          <mxGeometry width="45" height="25" as="geometry" />
        </mxCell>
        <mxCell id="2Fs-SG_frbHr2sO-u1KF-98" value="" style="shape=partialRectangle;html=1;whiteSpace=wrap;collapsible=0;dropTarget=0;pointerEvents=0;fillColor=none;top=0;left=0;bottom=0;right=0;points=[[0,0.5],[1,0.5]];portConstraint=eastwest;" parent="2Fs-SG_frbHr2sO-u1KF-95" vertex="1">
          <mxGeometry y="25" width="45" height="25" as="geometry" />
        </mxCell>
        <mxCell id="2Fs-SG_frbHr2sO-u1KF-99" value="head" style="shape=partialRectangle;html=1;whiteSpace=wrap;connectable=0;overflow=hidden;fillColor=none;top=0;left=0;bottom=0;right=0;container=0;" parent="2Fs-SG_frbHr2sO-u1KF-98" vertex="1">
          <mxGeometry width="45" height="25" as="geometry" />
        </mxCell>
        <mxCell id="2Fs-SG_frbHr2sO-u1KF-100" value="" style="shape=partialRectangle;html=1;whiteSpace=wrap;collapsible=0;dropTarget=0;pointerEvents=0;fillColor=none;top=0;left=0;bottom=0;right=0;points=[[0,0.5],[1,0.5]];portConstraint=eastwest;" parent="2Fs-SG_frbHr2sO-u1KF-95" vertex="1">
          <mxGeometry y="50" width="45" height="25" as="geometry" />
        </mxCell>
        <mxCell id="2Fs-SG_frbHr2sO-u1KF-101" value="tail" style="shape=partialRectangle;html=1;whiteSpace=wrap;connectable=0;overflow=hidden;fillColor=none;top=0;left=0;bottom=0;right=0;container=0;" parent="2Fs-SG_frbHr2sO-u1KF-100" vertex="1">
          <mxGeometry width="45" height="25" as="geometry" />
        </mxCell>
        <mxCell id="2Fs-SG_frbHr2sO-u1KF-102" value="" style="shape=partialRectangle;html=1;whiteSpace=wrap;collapsible=0;dropTarget=0;pointerEvents=0;fillColor=none;top=0;left=0;bottom=0;right=0;points=[[0,0.5],[1,0.5]];portConstraint=eastwest;" parent="2Fs-SG_frbHr2sO-u1KF-95" vertex="1">
          <mxGeometry y="75" width="45" height="25" as="geometry" />
        </mxCell>
        <mxCell id="2Fs-SG_frbHr2sO-u1KF-103" value="len" style="shape=partialRectangle;html=1;whiteSpace=wrap;connectable=0;overflow=hidden;fillColor=none;top=0;left=0;bottom=0;right=0;container=0;" parent="2Fs-SG_frbHr2sO-u1KF-102" vertex="1">
          <mxGeometry width="45" height="25" as="geometry" />
        </mxCell>
        <mxCell id="2Fs-SG_frbHr2sO-u1KF-104" value="" style="shape=partialRectangle;html=1;whiteSpace=wrap;collapsible=0;dropTarget=0;pointerEvents=0;fillColor=none;top=0;left=0;bottom=0;right=0;points=[[0,0.5],[1,0.5]];portConstraint=eastwest;" parent="2Fs-SG_frbHr2sO-u1KF-95" vertex="1">
          <mxGeometry y="100" width="45" height="25" as="geometry" />
        </mxCell>
        <mxCell id="2Fs-SG_frbHr2sO-u1KF-105" value="dup" style="shape=partialRectangle;html=1;whiteSpace=wrap;connectable=0;overflow=hidden;fillColor=none;top=0;left=0;bottom=0;right=0;container=0;" parent="2Fs-SG_frbHr2sO-u1KF-104" vertex="1">
          <mxGeometry width="45" height="25" as="geometry" />
        </mxCell>
        <mxCell id="2Fs-SG_frbHr2sO-u1KF-106" style="edgeStyle=orthogonalEdgeStyle;curved=1;rounded=0;orthogonalLoop=1;jettySize=auto;html=1;exitX=1;exitY=0.5;exitDx=0;exitDy=0;entryX=-0.033;entryY=0.925;entryDx=0;entryDy=0;entryPerimeter=0;" parent="1" source="2Fs-SG_frbHr2sO-u1KF-98" target="2Fs-SG_frbHr2sO-u1KF-56" edge="1">
          <mxGeometry x="518" y="480" as="geometry" />
        </mxCell>
        <mxCell id="2Fs-SG_frbHr2sO-u1KF-117" style="edgeStyle=orthogonalEdgeStyle;curved=1;rounded=0;orthogonalLoop=1;jettySize=auto;html=1;exitX=1;exitY=0.5;exitDx=0;exitDy=0;" parent="1" source="2Fs-SG_frbHr2sO-u1KF-100" target="2Fs-SG_frbHr2sO-u1KF-68" edge="1">
          <mxGeometry x="518" y="480" as="geometry">
            <Array as="points">
              <mxPoint x="563" y="564.375" />
              <mxPoint x="852.5" y="564.375" />
            </Array>
          </mxGeometry>
        </mxCell>
        <mxCell id="2Fs-SG_frbHr2sO-u1KF-118" value="" style="shape=table;html=1;whiteSpace=wrap;startSize=0;container=1;collapsible=0;childLayout=tableLayout;" parent="1" vertex="1">
          <mxGeometry x="729.5" y="497.5" width="45" height="50" as="geometry" />
        </mxCell>
        <mxCell id="2Fs-SG_frbHr2sO-u1KF-119" value="" style="shape=partialRectangle;html=1;whiteSpace=wrap;collapsible=0;dropTarget=0;pointerEvents=0;fillColor=none;top=0;left=0;bottom=0;right=0;points=[[0,0.5],[1,0.5]];portConstraint=eastwest;" parent="2Fs-SG_frbHr2sO-u1KF-118" vertex="1">
          <mxGeometry width="45" height="25" as="geometry" />
        </mxCell>
        <mxCell id="2Fs-SG_frbHr2sO-u1KF-120" value="listNode" style="shape=partialRectangle;html=1;whiteSpace=wrap;connectable=0;overflow=hidden;fillColor=none;top=0;left=0;bottom=0;right=0;container=0;" parent="2Fs-SG_frbHr2sO-u1KF-119" vertex="1">
          <mxGeometry width="45" height="25" as="geometry" />
        </mxCell>
        <mxCell id="2Fs-SG_frbHr2sO-u1KF-121" value="" style="shape=partialRectangle;html=1;whiteSpace=wrap;collapsible=0;dropTarget=0;pointerEvents=0;fillColor=none;top=0;left=0;bottom=0;right=0;points=[[0,0.5],[1,0.5]];portConstraint=eastwest;" parent="2Fs-SG_frbHr2sO-u1KF-118" vertex="1">
          <mxGeometry y="25" width="45" height="25" as="geometry" />
        </mxCell>
        <mxCell id="2Fs-SG_frbHr2sO-u1KF-122" value="value" style="shape=partialRectangle;html=1;whiteSpace=wrap;connectable=0;overflow=hidden;fillColor=none;top=0;left=0;bottom=0;right=0;container=0;" parent="2Fs-SG_frbHr2sO-u1KF-121" vertex="1">
          <mxGeometry width="45" height="25" as="geometry" />
        </mxCell>
        <mxCell id="2Fs-SG_frbHr2sO-u1KF-123" style="edgeStyle=orthogonalEdgeStyle;curved=1;rounded=0;orthogonalLoop=1;jettySize=auto;html=1;exitX=0;exitY=0.5;exitDx=0;exitDy=0;entryX=1;entryY=0.5;entryDx=0;entryDy=0;" parent="1" source="2Fs-SG_frbHr2sO-u1KF-121" target="2Fs-SG_frbHr2sO-u1KF-58" edge="1">
          <mxGeometry x="518" y="480" as="geometry">
            <mxPoint x="692" y="535" as="targetPoint" />
            <Array as="points">
              <mxPoint x="729.5" y="535" />
            </Array>
          </mxGeometry>
        </mxCell>
        <mxCell id="2Fs-SG_frbHr2sO-u1KF-124" value="prev" style="edgeLabel;html=1;align=center;verticalAlign=middle;resizable=0;points=[];container=0;" parent="2Fs-SG_frbHr2sO-u1KF-123" vertex="1" connectable="0">
          <mxGeometry relative="1" as="geometry">
            <mxPoint as="offset" />
          </mxGeometry>
        </mxCell>
        <mxCell id="2Fs-SG_frbHr2sO-u1KF-125" style="edgeStyle=orthogonalEdgeStyle;curved=1;rounded=0;orthogonalLoop=1;jettySize=auto;html=1;exitX=1;exitY=0.5;exitDx=0;exitDy=0;entryX=0;entryY=0.5;entryDx=0;entryDy=0;" parent="1" source="2Fs-SG_frbHr2sO-u1KF-119" target="2Fs-SG_frbHr2sO-u1KF-66" edge="1">
          <mxGeometry x="518" y="480" as="geometry" />
        </mxCell>
        <mxCell id="2Fs-SG_frbHr2sO-u1KF-126" style="edgeStyle=orthogonalEdgeStyle;curved=1;rounded=0;orthogonalLoop=1;jettySize=auto;html=1;exitX=0;exitY=0.5;exitDx=0;exitDy=0;entryX=1;entryY=0.5;entryDx=0;entryDy=0;" parent="1" source="2Fs-SG_frbHr2sO-u1KF-68" target="2Fs-SG_frbHr2sO-u1KF-121" edge="1">
          <mxGeometry x="518" y="480" as="geometry" />
        </mxCell>
        <mxCell id="2Fs-SG_frbHr2sO-u1KF-190" value="ht:包含两个项的数组，一般之后ht[0],hash表进行resh时使用另一个；&lt;br&gt;rehashidx：进度rehash目前进度，没有进行rehash时，rehashidx = -1；&lt;br&gt;渐进式rehash，双写双读" style="shape=note;whiteSpace=wrap;html=1;backgroundOutline=1;darkOpacity=0.05;align=left;fillColor=#FFE599;fontStyle=1" parent="1" vertex="1">
          <mxGeometry x="518" y="620" width="440" height="60" as="geometry" />
        </mxCell>
        <mxCell id="2Fs-SG_frbHr2sO-u1KF-128" value="" style="shape=table;html=1;whiteSpace=wrap;startSize=0;container=1;collapsible=0;childLayout=tableLayout;" parent="1" vertex="1">
          <mxGeometry x="1138.510708401977" y="427" width="60.82372322899505" height="104.83870967741937" as="geometry" />
        </mxCell>
        <mxCell id="2Fs-SG_frbHr2sO-u1KF-129" value="" style="shape=partialRectangle;html=1;whiteSpace=wrap;collapsible=0;dropTarget=0;pointerEvents=0;fillColor=none;top=0;left=0;bottom=0;right=0;points=[[0,0.5],[1,0.5]];portConstraint=eastwest;" parent="2Fs-SG_frbHr2sO-u1KF-128" vertex="1">
          <mxGeometry width="60.82372322899505" height="20" as="geometry" />
        </mxCell>
        <mxCell id="2Fs-SG_frbHr2sO-u1KF-130" value="dictht" style="shape=partialRectangle;html=1;whiteSpace=wrap;connectable=0;overflow=hidden;fillColor=none;top=0;left=0;bottom=0;right=0;" parent="2Fs-SG_frbHr2sO-u1KF-129" vertex="1">
          <mxGeometry width="61" height="20" as="geometry" />
        </mxCell>
        <mxCell id="2Fs-SG_frbHr2sO-u1KF-131" value="" style="shape=partialRectangle;html=1;whiteSpace=wrap;collapsible=0;dropTarget=0;pointerEvents=0;fillColor=none;top=0;left=0;bottom=0;right=0;points=[[0,0.5],[1,0.5]];portConstraint=eastwest;" parent="2Fs-SG_frbHr2sO-u1KF-128" vertex="1">
          <mxGeometry y="20" width="60.82372322899505" height="23" as="geometry" />
        </mxCell>
        <mxCell id="2Fs-SG_frbHr2sO-u1KF-132" value="table" style="shape=partialRectangle;html=1;whiteSpace=wrap;connectable=0;overflow=hidden;fillColor=none;top=0;left=0;bottom=0;right=0;" parent="2Fs-SG_frbHr2sO-u1KF-131" vertex="1">
          <mxGeometry width="61" height="23" as="geometry" />
        </mxCell>
        <mxCell id="2Fs-SG_frbHr2sO-u1KF-133" value="" style="shape=partialRectangle;html=1;whiteSpace=wrap;collapsible=0;dropTarget=0;pointerEvents=0;fillColor=none;top=0;left=0;bottom=0;right=0;points=[[0,0.5],[1,0.5]];portConstraint=eastwest;" parent="2Fs-SG_frbHr2sO-u1KF-128" vertex="1">
          <mxGeometry y="43" width="60.82372322899505" height="19" as="geometry" />
        </mxCell>
        <mxCell id="2Fs-SG_frbHr2sO-u1KF-134" value="size" style="shape=partialRectangle;html=1;whiteSpace=wrap;connectable=0;overflow=hidden;fillColor=none;top=0;left=0;bottom=0;right=0;" parent="2Fs-SG_frbHr2sO-u1KF-133" vertex="1">
          <mxGeometry width="61" height="19" as="geometry" />
        </mxCell>
        <mxCell id="2Fs-SG_frbHr2sO-u1KF-135" value="" style="shape=partialRectangle;html=1;whiteSpace=wrap;collapsible=0;dropTarget=0;pointerEvents=0;fillColor=none;top=0;left=0;bottom=0;right=0;points=[[0,0.5],[1,0.5]];portConstraint=eastwest;" parent="2Fs-SG_frbHr2sO-u1KF-128" vertex="1">
          <mxGeometry y="62" width="60.82372322899505" height="22" as="geometry" />
        </mxCell>
        <mxCell id="2Fs-SG_frbHr2sO-u1KF-136" value="sizemask" style="shape=partialRectangle;html=1;whiteSpace=wrap;connectable=0;overflow=hidden;fillColor=none;top=0;left=0;bottom=0;right=0;" parent="2Fs-SG_frbHr2sO-u1KF-135" vertex="1">
          <mxGeometry width="61" height="22" as="geometry" />
        </mxCell>
        <mxCell id="2Fs-SG_frbHr2sO-u1KF-137" value="" style="shape=partialRectangle;html=1;whiteSpace=wrap;collapsible=0;dropTarget=0;pointerEvents=0;fillColor=none;top=0;left=0;bottom=0;right=0;points=[[0,0.5],[1,0.5]];portConstraint=eastwest;" parent="2Fs-SG_frbHr2sO-u1KF-128" vertex="1">
          <mxGeometry y="84" width="60.82372322899505" height="21" as="geometry" />
        </mxCell>
        <mxCell id="2Fs-SG_frbHr2sO-u1KF-138" value="used" style="shape=partialRectangle;html=1;whiteSpace=wrap;connectable=0;overflow=hidden;fillColor=none;top=0;left=0;bottom=0;right=0;" parent="2Fs-SG_frbHr2sO-u1KF-137" vertex="1">
          <mxGeometry width="61" height="21" as="geometry" />
        </mxCell>
        <mxCell id="2Fs-SG_frbHr2sO-u1KF-139" value="" style="shape=table;html=1;whiteSpace=wrap;startSize=0;container=1;collapsible=0;childLayout=tableLayout;" parent="1" vertex="1">
          <mxGeometry x="1255.8747940691928" y="435.06451612903226" width="77.95716639209225" height="90.32258064516131" as="geometry" />
        </mxCell>
        <mxCell id="2Fs-SG_frbHr2sO-u1KF-140" value="" style="shape=partialRectangle;html=1;whiteSpace=wrap;collapsible=0;dropTarget=0;pointerEvents=0;fillColor=none;top=0;left=0;bottom=0;right=0;points=[[0,0.5],[1,0.5]];portConstraint=eastwest;" parent="2Fs-SG_frbHr2sO-u1KF-139" vertex="1">
          <mxGeometry width="77.95716639209225" height="19" as="geometry" />
        </mxCell>
        <mxCell id="2Fs-SG_frbHr2sO-u1KF-141" value="dictEntry*[4]" style="shape=partialRectangle;html=1;whiteSpace=wrap;connectable=0;overflow=hidden;fillColor=none;top=0;left=0;bottom=0;right=0;" parent="2Fs-SG_frbHr2sO-u1KF-140" vertex="1">
          <mxGeometry width="78" height="19" as="geometry" />
        </mxCell>
        <mxCell id="2Fs-SG_frbHr2sO-u1KF-142" value="" style="shape=partialRectangle;html=1;whiteSpace=wrap;collapsible=0;dropTarget=0;pointerEvents=0;fillColor=none;top=0;left=0;bottom=0;right=0;points=[[0,0.5],[1,0.5]];portConstraint=eastwest;" parent="2Fs-SG_frbHr2sO-u1KF-139" vertex="1">
          <mxGeometry y="19" width="77.95716639209225" height="17" as="geometry" />
        </mxCell>
        <mxCell id="2Fs-SG_frbHr2sO-u1KF-143" value="0" style="shape=partialRectangle;html=1;whiteSpace=wrap;connectable=0;overflow=hidden;fillColor=none;top=0;left=0;bottom=0;right=0;" parent="2Fs-SG_frbHr2sO-u1KF-142" vertex="1">
          <mxGeometry width="78" height="17" as="geometry" />
        </mxCell>
        <mxCell id="2Fs-SG_frbHr2sO-u1KF-144" value="" style="shape=partialRectangle;html=1;whiteSpace=wrap;collapsible=0;dropTarget=0;pointerEvents=0;fillColor=none;top=0;left=0;bottom=0;right=0;points=[[0,0.5],[1,0.5]];portConstraint=eastwest;" parent="2Fs-SG_frbHr2sO-u1KF-139" vertex="1">
          <mxGeometry y="36" width="77.95716639209225" height="19" as="geometry" />
        </mxCell>
        <mxCell id="2Fs-SG_frbHr2sO-u1KF-145" value="1" style="shape=partialRectangle;html=1;whiteSpace=wrap;connectable=0;overflow=hidden;fillColor=none;top=0;left=0;bottom=0;right=0;" parent="2Fs-SG_frbHr2sO-u1KF-144" vertex="1">
          <mxGeometry width="78" height="19" as="geometry" />
        </mxCell>
        <mxCell id="2Fs-SG_frbHr2sO-u1KF-146" value="" style="shape=partialRectangle;html=1;whiteSpace=wrap;collapsible=0;dropTarget=0;pointerEvents=0;fillColor=none;top=0;left=0;bottom=0;right=0;points=[[0,0.5],[1,0.5]];portConstraint=eastwest;" parent="2Fs-SG_frbHr2sO-u1KF-139" vertex="1">
          <mxGeometry y="55" width="77.95716639209225" height="17" as="geometry" />
        </mxCell>
        <mxCell id="2Fs-SG_frbHr2sO-u1KF-147" value="2" style="shape=partialRectangle;html=1;whiteSpace=wrap;connectable=0;overflow=hidden;fillColor=none;top=0;left=0;bottom=0;right=0;" parent="2Fs-SG_frbHr2sO-u1KF-146" vertex="1">
          <mxGeometry width="78" height="17" as="geometry" />
        </mxCell>
        <mxCell id="2Fs-SG_frbHr2sO-u1KF-219" style="shape=partialRectangle;html=1;whiteSpace=wrap;collapsible=0;dropTarget=0;pointerEvents=0;fillColor=none;top=0;left=0;bottom=0;right=0;points=[[0,0.5],[1,0.5]];portConstraint=eastwest;" parent="2Fs-SG_frbHr2sO-u1KF-139" vertex="1">
          <mxGeometry y="72" width="77.95716639209225" height="18" as="geometry" />
        </mxCell>
        <mxCell id="2Fs-SG_frbHr2sO-u1KF-220" value="3" style="shape=partialRectangle;html=1;whiteSpace=wrap;connectable=0;overflow=hidden;fillColor=none;top=0;left=0;bottom=0;right=0;" parent="2Fs-SG_frbHr2sO-u1KF-219" vertex="1">
          <mxGeometry width="78" height="18" as="geometry" />
        </mxCell>
        <mxCell id="2Fs-SG_frbHr2sO-u1KF-148" style="edgeStyle=orthogonalEdgeStyle;curved=1;rounded=0;orthogonalLoop=1;jettySize=auto;html=1;exitX=1;exitY=0.5;exitDx=0;exitDy=0;entryX=0;entryY=0.5;entryDx=0;entryDy=0;" parent="1" source="2Fs-SG_frbHr2sO-u1KF-131" target="2Fs-SG_frbHr2sO-u1KF-140" edge="1">
          <mxGeometry x="1028" y="427" as="geometry" />
        </mxCell>
        <mxCell id="2Fs-SG_frbHr2sO-u1KF-149" value="" style="shape=table;html=1;whiteSpace=wrap;startSize=0;container=1;collapsible=0;childLayout=tableLayout;" parent="1" vertex="1">
          <mxGeometry x="1388.6589785831961" y="435.06451612903226" width="59.967051070840185" height="40.32258064516129" as="geometry" />
        </mxCell>
        <mxCell id="2Fs-SG_frbHr2sO-u1KF-150" value="" style="shape=partialRectangle;html=1;whiteSpace=wrap;collapsible=0;dropTarget=0;pointerEvents=0;fillColor=none;top=0;left=0;bottom=0;right=0;points=[[0,0.5],[1,0.5]];portConstraint=eastwest;" parent="2Fs-SG_frbHr2sO-u1KF-149" vertex="1">
          <mxGeometry width="59.967051070840185" height="20" as="geometry" />
        </mxCell>
        <mxCell id="2Fs-SG_frbHr2sO-u1KF-151" value="dictEntry" style="shape=partialRectangle;html=1;whiteSpace=wrap;connectable=0;overflow=hidden;fillColor=none;top=0;left=0;bottom=0;right=0;" parent="2Fs-SG_frbHr2sO-u1KF-150" vertex="1">
          <mxGeometry width="60" height="20" as="geometry" />
        </mxCell>
        <mxCell id="2Fs-SG_frbHr2sO-u1KF-153" value="" style="shape=partialRectangle;html=1;whiteSpace=wrap;collapsible=0;dropTarget=0;pointerEvents=0;fillColor=none;top=0;left=0;bottom=0;right=0;points=[[0,0.5],[1,0.5]];portConstraint=eastwest;" parent="2Fs-SG_frbHr2sO-u1KF-149" vertex="1">
          <mxGeometry y="20" width="59.967051070840185" height="20" as="geometry" />
        </mxCell>
        <mxCell id="2Fs-SG_frbHr2sO-u1KF-154" value="key:value" style="shape=partialRectangle;html=1;whiteSpace=wrap;connectable=0;overflow=hidden;fillColor=none;top=0;left=0;bottom=0;right=0;" parent="2Fs-SG_frbHr2sO-u1KF-153" vertex="1">
          <mxGeometry width="60" height="20" as="geometry" />
        </mxCell>
        <mxCell id="2Fs-SG_frbHr2sO-u1KF-169" style="edgeStyle=orthogonalEdgeStyle;curved=1;rounded=0;orthogonalLoop=1;jettySize=auto;html=1;exitX=1;exitY=0.5;exitDx=0;exitDy=0;entryX=0;entryY=0.5;entryDx=0;entryDy=0;" parent="1" source="2Fs-SG_frbHr2sO-u1KF-142" target="2Fs-SG_frbHr2sO-u1KF-150" edge="1">
          <mxGeometry x="1028" y="427" as="geometry" />
        </mxCell>
        <mxCell id="2Fs-SG_frbHr2sO-u1KF-170" value="" style="shape=table;html=1;whiteSpace=wrap;startSize=0;container=1;collapsible=0;childLayout=tableLayout;" parent="1" vertex="1">
          <mxGeometry x="1488.0329489291598" y="437.0806451612903" width="59.967051070840185" height="36.29032258064517" as="geometry" />
        </mxCell>
        <mxCell id="2Fs-SG_frbHr2sO-u1KF-171" value="" style="shape=partialRectangle;html=1;whiteSpace=wrap;collapsible=0;dropTarget=0;pointerEvents=0;fillColor=none;top=0;left=0;bottom=0;right=0;points=[[0,0.5],[1,0.5]];portConstraint=eastwest;" parent="2Fs-SG_frbHr2sO-u1KF-170" vertex="1">
          <mxGeometry width="59.967051070840185" height="17" as="geometry" />
        </mxCell>
        <mxCell id="2Fs-SG_frbHr2sO-u1KF-172" value="dictEntry" style="shape=partialRectangle;html=1;whiteSpace=wrap;connectable=0;overflow=hidden;fillColor=none;top=0;left=0;bottom=0;right=0;" parent="2Fs-SG_frbHr2sO-u1KF-171" vertex="1">
          <mxGeometry width="60" height="17" as="geometry" />
        </mxCell>
        <mxCell id="2Fs-SG_frbHr2sO-u1KF-173" value="" style="shape=partialRectangle;html=1;whiteSpace=wrap;collapsible=0;dropTarget=0;pointerEvents=0;fillColor=none;top=0;left=0;bottom=0;right=0;points=[[0,0.5],[1,0.5]];portConstraint=eastwest;" parent="2Fs-SG_frbHr2sO-u1KF-170" vertex="1">
          <mxGeometry y="17" width="59.967051070840185" height="19" as="geometry" />
        </mxCell>
        <mxCell id="2Fs-SG_frbHr2sO-u1KF-174" value="key:value" style="shape=partialRectangle;html=1;whiteSpace=wrap;connectable=0;overflow=hidden;fillColor=none;top=0;left=0;bottom=0;right=0;" parent="2Fs-SG_frbHr2sO-u1KF-173" vertex="1">
          <mxGeometry width="60" height="19" as="geometry" />
        </mxCell>
        <mxCell id="2Fs-SG_frbHr2sO-u1KF-175" value="next" style="edgeStyle=orthogonalEdgeStyle;curved=1;rounded=0;orthogonalLoop=1;jettySize=auto;html=1;exitX=1;exitY=0.5;exitDx=0;exitDy=0;entryX=0;entryY=0.5;entryDx=0;entryDy=0;" parent="1" source="2Fs-SG_frbHr2sO-u1KF-150" target="2Fs-SG_frbHr2sO-u1KF-171" edge="1">
          <mxGeometry x="1028" y="427" as="geometry" />
        </mxCell>
        <mxCell id="2Fs-SG_frbHr2sO-u1KF-176" value="" style="shape=table;html=1;whiteSpace=wrap;startSize=0;container=1;collapsible=0;childLayout=tableLayout;" parent="1" vertex="1">
          <mxGeometry x="1008" y="435.06" width="71.4" height="141.94" as="geometry" />
        </mxCell>
        <mxCell id="2Fs-SG_frbHr2sO-u1KF-177" value="" style="shape=partialRectangle;html=1;whiteSpace=wrap;collapsible=0;dropTarget=0;pointerEvents=0;fillColor=none;top=0;left=0;bottom=0;right=0;points=[[0,0.5],[1,0.5]];portConstraint=eastwest;" parent="2Fs-SG_frbHr2sO-u1KF-176" vertex="1">
          <mxGeometry width="71.4" height="27" as="geometry" />
        </mxCell>
        <mxCell id="2Fs-SG_frbHr2sO-u1KF-178" value="dict" style="shape=partialRectangle;html=1;whiteSpace=wrap;connectable=0;overflow=hidden;fillColor=none;top=0;left=0;bottom=0;right=0;" parent="2Fs-SG_frbHr2sO-u1KF-177" vertex="1">
          <mxGeometry width="71" height="27" as="geometry" />
        </mxCell>
        <mxCell id="2Fs-SG_frbHr2sO-u1KF-179" value="" style="shape=partialRectangle;html=1;whiteSpace=wrap;collapsible=0;dropTarget=0;pointerEvents=0;fillColor=none;top=0;left=0;bottom=0;right=0;points=[[0,0.5],[1,0.5]];portConstraint=eastwest;" parent="2Fs-SG_frbHr2sO-u1KF-176" vertex="1">
          <mxGeometry y="27" width="71.4" height="30" as="geometry" />
        </mxCell>
        <mxCell id="2Fs-SG_frbHr2sO-u1KF-180" value="type" style="shape=partialRectangle;html=1;whiteSpace=wrap;connectable=0;overflow=hidden;fillColor=none;top=0;left=0;bottom=0;right=0;" parent="2Fs-SG_frbHr2sO-u1KF-179" vertex="1">
          <mxGeometry width="71" height="30" as="geometry" />
        </mxCell>
        <mxCell id="2Fs-SG_frbHr2sO-u1KF-181" value="" style="shape=partialRectangle;html=1;whiteSpace=wrap;collapsible=0;dropTarget=0;pointerEvents=0;fillColor=none;top=0;left=0;bottom=0;right=0;points=[[0,0.5],[1,0.5]];portConstraint=eastwest;" parent="2Fs-SG_frbHr2sO-u1KF-176" vertex="1">
          <mxGeometry y="57" width="71.4" height="28" as="geometry" />
        </mxCell>
        <mxCell id="2Fs-SG_frbHr2sO-u1KF-182" value="privdata" style="shape=partialRectangle;html=1;whiteSpace=wrap;connectable=0;overflow=hidden;fillColor=none;top=0;left=0;bottom=0;right=0;" parent="2Fs-SG_frbHr2sO-u1KF-181" vertex="1">
          <mxGeometry width="71" height="28" as="geometry" />
        </mxCell>
        <mxCell id="2Fs-SG_frbHr2sO-u1KF-183" value="" style="shape=partialRectangle;html=1;whiteSpace=wrap;collapsible=0;dropTarget=0;pointerEvents=0;fillColor=none;top=0;left=0;bottom=0;right=0;points=[[0,0.5],[1,0.5]];portConstraint=eastwest;" parent="2Fs-SG_frbHr2sO-u1KF-176" vertex="1">
          <mxGeometry y="85" width="71.4" height="29" as="geometry" />
        </mxCell>
        <mxCell id="2Fs-SG_frbHr2sO-u1KF-184" value="ht" style="shape=partialRectangle;html=1;whiteSpace=wrap;connectable=0;overflow=hidden;fillColor=none;top=0;left=0;bottom=0;right=0;" parent="2Fs-SG_frbHr2sO-u1KF-183" vertex="1">
          <mxGeometry width="71" height="29" as="geometry" />
        </mxCell>
        <mxCell id="2Fs-SG_frbHr2sO-u1KF-185" value="" style="shape=partialRectangle;html=1;whiteSpace=wrap;collapsible=0;dropTarget=0;pointerEvents=0;fillColor=none;top=0;left=0;bottom=0;right=0;points=[[0,0.5],[1,0.5]];portConstraint=eastwest;" parent="2Fs-SG_frbHr2sO-u1KF-176" vertex="1">
          <mxGeometry y="114" width="71.4" height="28" as="geometry" />
        </mxCell>
        <mxCell id="2Fs-SG_frbHr2sO-u1KF-186" value="rehashidx" style="shape=partialRectangle;html=1;whiteSpace=wrap;connectable=0;overflow=hidden;fillColor=none;top=0;left=0;bottom=0;right=0;" parent="2Fs-SG_frbHr2sO-u1KF-185" vertex="1">
          <mxGeometry width="71" height="28" as="geometry" />
        </mxCell>
        <mxCell id="2Fs-SG_frbHr2sO-u1KF-191" style="edgeStyle=orthogonalEdgeStyle;curved=1;rounded=0;orthogonalLoop=1;jettySize=auto;html=1;exitX=1;exitY=0.5;exitDx=0;exitDy=0;entryX=0;entryY=0.5;entryDx=0;entryDy=0;" parent="1" source="2Fs-SG_frbHr2sO-u1KF-183" target="2Fs-SG_frbHr2sO-u1KF-129" edge="1">
          <mxGeometry x="1028" y="427" as="geometry" />
        </mxCell>
        <mxCell id="2Fs-SG_frbHr2sO-u1KF-192" value="dicht[0]" style="edgeLabel;html=1;align=center;verticalAlign=middle;resizable=0;points=[];" parent="2Fs-SG_frbHr2sO-u1KF-191" vertex="1" connectable="0">
          <mxGeometry x="0.1439" y="2" relative="1" as="geometry">
            <mxPoint x="1" y="1" as="offset" />
          </mxGeometry>
        </mxCell>
        <mxCell id="2Fs-SG_frbHr2sO-u1KF-204" value="" style="shape=table;html=1;whiteSpace=wrap;startSize=0;container=1;collapsible=0;childLayout=tableLayout;" parent="1" vertex="1">
          <mxGeometry x="1138.510708401977" y="572.1612903225807" width="60.82372322899505" height="104.83870967741937" as="geometry" />
        </mxCell>
        <mxCell id="2Fs-SG_frbHr2sO-u1KF-205" value="" style="shape=partialRectangle;html=1;whiteSpace=wrap;collapsible=0;dropTarget=0;pointerEvents=0;fillColor=none;top=0;left=0;bottom=0;right=0;points=[[0,0.5],[1,0.5]];portConstraint=eastwest;" parent="2Fs-SG_frbHr2sO-u1KF-204" vertex="1">
          <mxGeometry width="60.82372322899505" height="20" as="geometry" />
        </mxCell>
        <mxCell id="2Fs-SG_frbHr2sO-u1KF-206" value="dictht" style="shape=partialRectangle;html=1;whiteSpace=wrap;connectable=0;overflow=hidden;fillColor=none;top=0;left=0;bottom=0;right=0;" parent="2Fs-SG_frbHr2sO-u1KF-205" vertex="1">
          <mxGeometry width="61" height="20" as="geometry" />
        </mxCell>
        <mxCell id="2Fs-SG_frbHr2sO-u1KF-207" value="" style="shape=partialRectangle;html=1;whiteSpace=wrap;collapsible=0;dropTarget=0;pointerEvents=0;fillColor=none;top=0;left=0;bottom=0;right=0;points=[[0,0.5],[1,0.5]];portConstraint=eastwest;" parent="2Fs-SG_frbHr2sO-u1KF-204" vertex="1">
          <mxGeometry y="20" width="60.82372322899505" height="23" as="geometry" />
        </mxCell>
        <mxCell id="2Fs-SG_frbHr2sO-u1KF-208" value="table" style="shape=partialRectangle;html=1;whiteSpace=wrap;connectable=0;overflow=hidden;fillColor=none;top=0;left=0;bottom=0;right=0;" parent="2Fs-SG_frbHr2sO-u1KF-207" vertex="1">
          <mxGeometry width="61" height="23" as="geometry" />
        </mxCell>
        <mxCell id="2Fs-SG_frbHr2sO-u1KF-209" value="" style="shape=partialRectangle;html=1;whiteSpace=wrap;collapsible=0;dropTarget=0;pointerEvents=0;fillColor=none;top=0;left=0;bottom=0;right=0;points=[[0,0.5],[1,0.5]];portConstraint=eastwest;" parent="2Fs-SG_frbHr2sO-u1KF-204" vertex="1">
          <mxGeometry y="43" width="60.82372322899505" height="19" as="geometry" />
        </mxCell>
        <mxCell id="2Fs-SG_frbHr2sO-u1KF-210" value="size" style="shape=partialRectangle;html=1;whiteSpace=wrap;connectable=0;overflow=hidden;fillColor=none;top=0;left=0;bottom=0;right=0;" parent="2Fs-SG_frbHr2sO-u1KF-209" vertex="1">
          <mxGeometry width="61" height="19" as="geometry" />
        </mxCell>
        <mxCell id="2Fs-SG_frbHr2sO-u1KF-211" value="" style="shape=partialRectangle;html=1;whiteSpace=wrap;collapsible=0;dropTarget=0;pointerEvents=0;fillColor=none;top=0;left=0;bottom=0;right=0;points=[[0,0.5],[1,0.5]];portConstraint=eastwest;" parent="2Fs-SG_frbHr2sO-u1KF-204" vertex="1">
          <mxGeometry y="62" width="60.82372322899505" height="22" as="geometry" />
        </mxCell>
        <mxCell id="2Fs-SG_frbHr2sO-u1KF-212" value="sizemask" style="shape=partialRectangle;html=1;whiteSpace=wrap;connectable=0;overflow=hidden;fillColor=none;top=0;left=0;bottom=0;right=0;" parent="2Fs-SG_frbHr2sO-u1KF-211" vertex="1">
          <mxGeometry width="61" height="22" as="geometry" />
        </mxCell>
        <mxCell id="2Fs-SG_frbHr2sO-u1KF-213" value="" style="shape=partialRectangle;html=1;whiteSpace=wrap;collapsible=0;dropTarget=0;pointerEvents=0;fillColor=none;top=0;left=0;bottom=0;right=0;points=[[0,0.5],[1,0.5]];portConstraint=eastwest;" parent="2Fs-SG_frbHr2sO-u1KF-204" vertex="1">
          <mxGeometry y="84" width="60.82372322899505" height="21" as="geometry" />
        </mxCell>
        <mxCell id="2Fs-SG_frbHr2sO-u1KF-214" value="used" style="shape=partialRectangle;html=1;whiteSpace=wrap;connectable=0;overflow=hidden;fillColor=none;top=0;left=0;bottom=0;right=0;" parent="2Fs-SG_frbHr2sO-u1KF-213" vertex="1">
          <mxGeometry width="61" height="21" as="geometry" />
        </mxCell>
        <mxCell id="2Fs-SG_frbHr2sO-u1KF-215" style="edgeStyle=orthogonalEdgeStyle;curved=1;rounded=0;orthogonalLoop=1;jettySize=auto;html=1;exitX=1;exitY=0.5;exitDx=0;exitDy=0;entryX=0;entryY=0.5;entryDx=0;entryDy=0;" parent="1" source="2Fs-SG_frbHr2sO-u1KF-183" target="2Fs-SG_frbHr2sO-u1KF-205" edge="1">
          <mxGeometry x="1028" y="427" as="geometry" />
        </mxCell>
        <mxCell id="2Fs-SG_frbHr2sO-u1KF-216" value="dicht[1]" style="edgeLabel;html=1;align=center;verticalAlign=middle;resizable=0;points=[];" parent="2Fs-SG_frbHr2sO-u1KF-215" vertex="1" connectable="0">
          <mxGeometry x="-0.1339" y="-3" relative="1" as="geometry">
            <mxPoint as="offset" />
          </mxGeometry>
        </mxCell>
        <mxCell id="2Fs-SG_frbHr2sO-u1KF-217" style="edgeStyle=orthogonalEdgeStyle;curved=1;rounded=0;orthogonalLoop=1;jettySize=auto;html=1;exitX=1;exitY=0.5;exitDx=0;exitDy=0;" parent="1" source="2Fs-SG_frbHr2sO-u1KF-205" edge="1">
          <mxGeometry x="1028" y="427" as="geometry">
            <mxPoint x="1259.3014827018121" y="588.2903225806451" as="targetPoint" />
          </mxGeometry>
        </mxCell>
        <mxCell id="2Fs-SG_frbHr2sO-u1KF-218" value="NULL" style="text;html=1;align=center;verticalAlign=middle;resizable=0;points=[];autosize=1;" parent="1" vertex="1">
          <mxGeometry x="1255.018121911038" y="580.2258064516129" width="50" height="20" as="geometry" />
        </mxCell>
      </root>
    </mxGraphModel>
  </diagram>
</mxfile>
